<svg width="285.3" height="284" version="1.1" viewBox="0 0 285.3 284" xmlns="http://www.w3.org/2000/svg">
	<path d="m67.3 0.2617c-5.219 0-9.449 4.233-9.449 9.451v51.08c0 5.219 4.23 9.449 9.449 9.449 5.218 0 9.449-4.231 9.449-9.449v-51.08c0-5.219-4.231-9.451-9.449-9.451zm151.2 0c-5.217 0-9.447 4.233-9.447 9.451v51.08c0 5.219 4.23 9.449 9.447 9.449 5.219 0 9.449-4.231 9.449-9.449v-51.08c0-5.219-4.231-9.451-9.449-9.451zm-179.5 18.9c-10.4 0-19.86 4.248-26.7 11.09-6.845 6.845-11.1 16.3-11.1 26.7v28.35c0 5.219 4.231 9.449 9.449 9.449h264.6c5.219 0 9.449-4.231 9.449-9.449v-28.35c0-10.4-4.25-19.86-11.1-26.7-6.845-6.845-16.3-11.09-26.7-11.09-5.219 0-9.447 4.231-9.447 9.449 0 5.217 4.229 9.447 9.447 9.447 5.187 0 9.909 2.129 13.34 5.559 3.431 3.431 5.559 8.155 5.559 13.34v18.9h-245.7v-18.9c0-5.185 2.129-9.911 5.559-13.34 3.43-3.429 8.153-5.559 13.34-5.559 5.218 0 9.447-4.23 9.447-9.447 0-5.219-4.229-9.449-9.447-9.449zm58 0c-5.218 0-9.449 4.231-9.449 9.449 0 5.217 4.231 9.447 9.449 9.447h92.81c5.219 0 9.451-4.23 9.451-9.447 0-5.219-4.232-9.449-9.451-9.449zm-86.34 94.76c-5.218 0-9.449 4.232-9.449 9.449v113.1c0 13 5.313 24.82 13.87 33.37 8.559 8.558 20.37 13.87 33.37 13.87h189c13 0 24.81-5.313 33.37-13.87 8.557-8.558 13.87-20.37 13.87-33.37v-113.1c0-5.217-4.231-9.449-9.449-9.449zm9.449 18.9h245.7v103.7c0 7.785-3.191 14.87-8.334 20.01-5.141 5.142-12.23 8.336-20.01 8.336h-189c-7.784 0-14.87-3.192-20.01-8.334-5.142-5.142-8.334-12.23-8.334-20.01zm18.9 18.63v37.79h37.79v-37.79zm56.69 0v37.79h37.8v-37.79zm56.69 0v37.79h37.79v-37.79zm56.69 0v37.79h37.79v-37.79zm-170.1 56.69v37.79h37.79v-37.79zm56.69 0v37.79h37.8v-37.79zm56.69 0v37.79h37.79v-37.79zm56.69 0v37.79h37.79v-37.79z" fill="#dfe2e8"/>
</svg>
