<svg width="283.5" height="283.5" version="1.1" viewBox="0 0 283.5 283.5" xmlns="http://www.w3.org/2000/svg">
	<defs>
		<linearGradient id="grad" x1="0" y1="0" x2="1" y2="1">
			<stop offset="0%" stop-color="#1abc9c"/>
			<stop offset="100%" stop-color="#529f90"/>
		</linearGradient>
	</defs>
	<path d="m74.52 191.8c-3.69-3.69-3.69-9.672 0-13.36s9.672-3.69 13.36 0l31.8 31.8 66.78-66.78c3.689-3.689 9.671-3.689 13.36 0 3.689 3.689 3.689 9.672 0 13.36l-73.46 73.46c-3.69 3.69-9.672 3.69-13.36 0zm-65.07-78.16h264.6c5.219 0 9.449 4.231 9.449 9.449v113.1c0 13-5.313 24.82-13.87 33.37-8.557 8.558-20.37 13.87-33.37 13.87h-189c-13 0-24.82-5.313-33.37-13.87-8.558-8.558-13.87-20.37-13.87-33.37v-113.1c0-5.219 4.23-9.449 9.449-9.449zm255.1 18.9h-245.7v103.7c0 7.785 3.192 14.87 8.334 20.01 5.143 5.142 12.23 8.334 20.01 8.334h189c7.785 0 14.87-3.192 20.01-8.335 5.143-5.142 8.336-12.23 8.336-20.01zm-18.9-94.76c-5.219 0-9.449-4.229-9.449-9.448 0-5.219 4.231-9.449 9.449-9.449 10.4 0 19.85 4.249 26.7 11.1 6.845 6.845 11.1 16.3 11.1 26.7v28.35c0 5.219-4.231 9.449-9.449 9.449h-264.6c-5.219 0-9.449-4.231-9.449-9.449v-28.35c0-10.4 4.249-19.85 11.09-26.7 6.846-6.845 16.3-11.09 26.7-11.09 5.218 0 9.449 4.231 9.449 9.449 0 5.219-4.231 9.448-9.449 9.448-5.186 0-9.909 2.129-13.34 5.559-3.429 3.429-5.559 8.153-5.559 13.34v18.9h245.7v-18.9c0-5.187-2.131-9.909-5.56-13.34-3.429-3.429-8.152-5.559-13.34-5.559zm-149.9 0c-5.219 0-9.449-4.229-9.449-9.448 0-5.219 4.23-9.449 9.449-9.449h92.82c5.219 0 9.448 4.231 9.448 9.449 0 5.219-4.229 9.448-9.448 9.448zm-20.2 22.74c0 5.217-4.231 9.448-9.449 9.448-5.219 0-9.448-4.231-9.448-9.448v-51.08c0-5.217 4.23-9.448 9.448-9.448 5.218 0 9.449 4.231 9.449 9.448zm151.2 0c0 5.217-4.231 9.448-9.449 9.448-5.217 0-9.448-4.231-9.448-9.448v-51.08c0-5.217 4.231-9.448 9.448-9.448 5.219 0 9.449 4.231 9.449 9.448v51.08" fill="url(#grad)"/>
</svg>
