<svg width="283.5" height="283.5" version="1.1" viewBox="0 0 283.5 283.5" xmlns="http://www.w3.org/2000/svg">
	<defs>
		<linearGradient id="grad" x1="0" y1="0" x2="1" y2="1">
			<stop offset="0%" stop-color="#1abc9c"/>
			<stop offset="100%" stop-color="#529f90"/>
		</linearGradient>
	</defs>
	<path d="m207.9 264.6v-175.6l-18.9 18.9v156.7zm-37.79 0v-137.8l-18.9 18.9v118.9zm-37.8 0v-100l-18.9 18.9v81.13zm-37.8 0v-81.13l-18.9-18.9v100zm-37.79 0v-100l-37.8 37.8v33.88c0 7.785 3.192 14.87 8.334 20.01 5.142 5.142 12.23 8.334 20.01 8.334zm-37.8-88.95 40.51-40.51c0.2417-0.2467 0.4975-0.4787 0.7647-0.6987l0.03587-0.028 0.1532-0.1213 0.0312-0.024 0.1516-0.1147 0.04373-0.032 0.1369-0.0973 0.0776-0.0547 0.1032-0.0693 0.09627-0.064 0.09747-0.0627 0.09213-0.0573 0.1161-0.0707 0.0704-0.0413 0.152-0.0867 0.03493-0.02 0.1505-0.0813 0.0692-0.0373 0.1631-0.0827 0.01933-9e-3 0.1948-0.0933 0.0104-5e-3c1.208-0.5613 2.554-0.8747 3.974-0.8747 1.42 0 2.766 0.3133 3.975 0.8747l0.0099 5e-3 0.1953 0.0933 0.01933 9e-3 0.1629 0.0827 0.06933 0.0373 0.1505 0.0813 0.0348 0.02 0.1516 0.0867 0.0708 0.0413 0.1161 0.0707 0.09227 0.0573 0.0968 0.0627 0.09693 0.064 0.1025 0.0693 0.07813 0.0547 0.1371 0.0973 0.04373 0.032 0.1516 0.1147 0.0312 0.024 0.1525 0.1213 0.036 0.028c0.2677 0.22 0.5235 0.452 0.7651 0.6987l31.06 31.06 144.5-144.5c-3.703-1.783-7.841-2.784-12.2-2.784h-189c-7.785 0-14.87 3.192-20.01 8.335-5.142 5.141-8.334 12.23-8.334 20.01zm242.9-140.6-35.01 35.01v194.5h9.448c7.785 0 14.87-3.192 20.01-8.334 5.143-5.142 8.335-12.23 8.335-20.01v-189c0-4.36-1.001-8.499-2.784-12.2zm-214.5-35.04h189c13 0 24.82 5.312 33.37 13.87 8.559 8.559 13.87 20.37 13.87 33.37v189c0 13-5.312 24.82-13.87 33.37-8.557 8.558-20.37 13.87-33.37 13.87h-189c-13 0-24.82-5.312-33.37-13.87-8.558-8.558-13.87-20.37-13.87-33.37v-189c0-13 5.313-24.82 13.87-33.37 8.558-8.557 20.37-13.87 33.37-13.87" fill="url(#grad)"/>
</svg>
