<svg width="283.5" height="283.5" version="1.1" viewBox="0 0 283.5 283.5" xmlns="http://www.w3.org/2000/svg">
	<defs>
		<linearGradient id="grad" x1="0" y1="0" x2="1" y2="1">
			<stop offset="0%" stop-color="#1abc9c"/>
			<stop offset="100%" stop-color="#529f90"/>
		</linearGradient>
	</defs>
	<path d="m141.7 0c-39.14 0-74.57 15.87-100.2 41.51-25.65 25.65-41.51 61.08-41.51 100.2 0 39.14 15.86 74.57 41.51 100.2 25.65 25.65 61.08 41.51 100.2 41.51 39.14 0 74.57-15.87 100.2-41.51s41.51-61.08 41.51-100.2c0-12.28-1.616-24.49-4.766-36.35-3.151-11.86-7.817-23.29-13.92-33.97-2.589-4.524-8.356-6.093-12.88-3.504-4.525 2.588-6.095 8.356-3.506 12.88 5.319 9.307 9.366 19.19 12.07 29.39 2.709 10.2 4.1 20.81 4.1 31.55 0 33.92-13.75 64.63-35.98 86.86s-52.94 35.98-86.86 35.98c-33.92 0-64.63-13.75-86.86-35.98-22.23-22.23-35.98-52.94-35.98-86.86 0-33.92 13.75-64.63 35.98-86.86 22.23-22.23 52.94-35.98 86.86-35.98 8.421 0 16.7 0.8371 24.71 2.482 8.072 1.656 16.01 4.143 23.7 7.439 4.791 2.037 10.33-0.1931 12.37-4.982 2.037-4.791-0.1931-10.33-4.982-12.37-8.777-3.761-17.93-6.621-27.32-8.549-9.444-1.937-18.99-2.922-28.48-2.922zm113.7 0.01758c-2.718-0.1016-5.457 0.9662-7.406 3.156l-144.5 162.6-49.62-49.62c-3.69-3.691-9.672-3.691-13.36 0-3.689 3.689-3.689 9.671 0 13.36l63.77 63.77 157.8-177.6c3.465-3.893 3.12-9.857-0.7734-13.32-1.703-1.516-3.804-2.304-5.918-2.383z" fill="url(#grad)"/>
</svg>
