<svg width="189" height="113.4" version="1.1" viewBox="0 0 189 113.4" xmlns="http://www.w3.org/2000/svg">
	<path d="m56.69 0c-31.31 0-56.69 25.38-56.69 56.69 0 31.31 25.38 56.69 56.69 56.69 31.31 0 56.69-25.38 56.69-56.69 0-31.31-25.38-56.69-56.69-56.69zm37.79 0c-2.433 0-4.83 0.1538-7.182 0.4512 19.9 10.86 33.41 31.97 33.41 56.24 0 24.27-13.5 45.38-33.41 56.24 2.352 0.2969 4.749 0.4512 7.182 0.4512 31.31 0 56.69-25.38 56.69-56.69 0-31.31-25.38-56.69-56.69-56.69zm37.79 0c-2.433 0-4.831 0.1538-7.184 0.4512 19.91 10.86 33.41 31.97 33.41 56.24 0 24.27-13.5 45.38-33.41 56.24 2.353 0.2969 4.751 0.4512 7.184 0.4512 31.31 0 56.69-25.38 56.69-56.69 0-31.31-25.38-56.69-56.69-56.69z" fill="#76839d"/>
</svg>
