<svg width="245.7" height="189" version="1.1" viewBox="0 0 245.7 189" xmlns="http://www.w3.org/2000/svg">
	<defs>
		<linearGradient id="grad" x1="0" y1="0" x2="1" y2="1">
			<stop offset="0%" stop-color="#1abc9c"/>
			<stop offset="100%" stop-color="#529f90"/>
		</linearGradient>
	</defs>
	<path d="m236.1 111.6c5.3 0 9.596-4.328 9.596-9.666v-63.31c0-21.32-17.22-38.67-38.39-38.67h-168.9c-21.17 0-38.39 17.35-38.39 38.67v111.6c0 21.32 17.22 38.67 38.39 38.67h168.9c21.17 0 38.39-17.35 38.39-38.67 0-5.339-4.296-9.666-9.596-9.666s-9.596 4.328-9.596 9.666c0 10.66-8.611 19.33-19.19 19.33h-168.9c-10.58 0-19.19-8.672-19.19-19.33v-109.6l83.37 52.22c6.252 3.915 13.26 5.872 20.27 5.872 7.009 0 14.02-1.957 20.27-5.872l83.37-52.22v61.27c0 5.339 4.296 9.666 9.596 9.666zm-103.1-35.13c-6.251 3.916-14.02 3.916-20.27 0l-85.5-53.55c3.151-2.284 7.015-3.629 11.19-3.629h168.9c4.169 0 8.033 1.347 11.19 3.631l-85.5 53.55" fill="url(#grad)"/>
</svg>
