<svg width="283.5" height="283.5" version="1.1" viewBox="0 0 283.5 283.5" xmlns="http://www.w3.org/2000/svg">
	<defs>
		<linearGradient id="grad" x1="0" y1="0" x2="1" y2="1">
			<stop offset="0%" stop-color="#1abc9c"/>
			<stop offset="100%" stop-color="#529f90"/>
		</linearGradient>
	</defs>
	<path d="m280.6 135c0.2467 0.2413 0.48 0.4973 0.6987 0.7653l0.028 0.036 0.1213 0.152 0.024 0.032 0.1147 0.1507 0.032 0.044 0.0987 0.1373 0.0533 0.0773 0.0693 0.104 0.064 0.096 0.0627 0.0973 0.0573 0.092 0.0707 0.116 0.0413 0.0707 0.0867 0.152 0.02 0.0347 0.0813 0.1507 0.0373 0.0693 0.0827 0.1627 9e-3 0.02 0.0933 0.1947 5e-3 9e-3c0.5613 1.208 0.8747 2.555 0.8747 3.975s-0.3133 2.767-0.8747 3.975l-5e-3 0.0107-0.0933 0.1947-9e-3 0.0187-0.0827 0.1627-0.0373 0.0693-0.0813 0.1507-0.02 0.0347-0.0867 0.152-0.0413 0.0707-0.0707 0.116-0.0573 0.092-0.0627 0.0987-0.064 0.096-0.0693 0.1027-0.0533 0.0773-0.0987 0.1373-0.032 0.044-0.1147 0.152-0.024 0.0307-0.1213 0.1533-0.028 0.036c-0.2187 0.2667-0.452 0.5227-0.6987 0.764l-56.63 56.64c-3.689 3.69-9.672 3.69-13.36 0-3.689-3.69-3.689-9.672 0-13.36l40.56-40.56h-185.1c-5.218 0-9.448-4.23-9.448-9.449 0-5.219 4.23-9.448 9.448-9.448h185.1l-40.56-40.56c-3.689-3.689-3.689-9.672 0-13.36 3.689-3.689 9.672-3.689 13.36 0zm-110.6 82.33c0-5.219 4.231-9.449 9.448-9.449 5.219 0 9.449 4.23 9.449 9.449v18.9c0 13-5.313 24.81-13.87 33.37-8.559 8.558-20.37 13.87-33.37 13.87h-94.49c-13 0-24.82-5.312-33.37-13.87-8.558-8.558-13.87-20.37-13.87-33.37v-189c0-13 5.312-24.82 13.87-33.37 8.558-8.559 20.37-13.87 33.37-13.87h94.49c13 0 24.81 5.312 33.37 13.87 8.559 8.559 13.87 20.37 13.87 33.37v18.9c0 5.219-4.231 9.449-9.449 9.449-5.217 0-9.448-4.231-9.448-9.449v-18.9c0-7.784-3.193-14.87-8.335-20.01-5.143-5.143-12.23-8.335-20.01-8.335h-94.49c-7.785 0-14.87 3.192-20.01 8.335-5.142 5.143-8.334 12.23-8.334 20.01v189c0 7.785 3.192 14.87 8.334 20.01 5.143 5.142 12.23 8.334 20.01 8.334h94.49c7.784 0 14.87-3.193 20.01-8.334 5.141-5.143 8.335-12.23 8.335-20.01v-18.9" fill="url(#grad)"/>
</svg>
