<svg width="87.94" height="28.02" viewBox="0 0 87.94 28.02" xmlns="http://www.w3.org/2000/svg" preserveAspectRatio="none">
	<defs>
		<linearGradient id="grad" x1="0" y1="0" x2="0" y2="1">
			<stop offset="0%" stop-color="#5bb5a8"/>
			<stop offset="100%" stop-color="#51aeab"/>
		</linearGradient>
	</defs>	
	<path d="m11.27 27.9c-0.2912-0.0621-0.7715-0.2095-1.067-0.3276-0.7528-0.3006-6.96-3.863-7.691-4.414-1.006-0.758-1.845-1.965-2.297-3.304l-0.2169-0.643v-10.44l0.2169-0.643c0.2545-0.7546 0.4902-1.24 0.8852-1.823 0.3154-0.4651 1.03-1.22 1.414-1.493l0.2456-0.1749v6.477c0 7.35-0.0146 7.139 0.5814 8.36 0.2886 0.591 0.4578 0.8237 0.9624 1.324 0.5728 0.5678 0.7803 0.7025 3.222 2.093 3.116 1.774 3.085 1.758 3.834 1.968 1.158 0.3237 2.474 0.1994 3.618-0.3418 0.5058-0.2393 4.428-2.454 5.22-2.948 0.9684-0.6036 1.811-1.669 2.199-2.782l0.2218-0.6356 0.0756-13.52 0.4418 0.3599c1.124 0.9161 1.998 2.455 2.254 3.97 0.0556 0.329 0.0791 2.039 0.0703 5.125-0.013 4.593-0.0146 4.637-0.1926 5.371-0.2115 0.8726-0.5144 1.578-0.9585 2.233-0.6775 0.999-1.256 1.492-2.75 2.348-0.5409 0.3095-2.039 1.17-3.329 1.913-2.477 1.426-3.194 1.765-4.139 1.958-0.7289 0.1485-2.109 0.1453-2.821-6e-3zm0.9457-5.899c-0.683-0.1297-1.223-0.3782-2.988-1.375-1.702-0.9615-2.039-1.182-2.503-1.641-0.5525-0.5463-0.8637-1.073-1.011-1.711-0.0486-0.2108-0.0772-2.888-0.0784-7.333l-2e-3 -7.001 1.352-0.7723c0.7438-0.4247 1.373-0.7723 1.398-0.7723 0.025 0 0.0546 3.328 0.066 7.395 0.0207 7.389 0.0209 7.395 0.1836 7.747 0.2478 0.5362 0.6545 0.8717 1.942 1.602 1.378 0.7816 1.733 0.9108 2.341 0.8517 0.4699-0.0456 0.7468-0.1692 2.099-0.937 1.156-0.6566 1.458-0.9084 1.716-1.435l0.2132-0.4342 0.0408-14.85 2.834 1.622 0.0215 6.616c0.0133 4.078-7e-3 6.837-0.0536 7.191-0.1449 1.109-0.5982 1.926-1.411 2.545-0.5909 0.4495-3.924 2.333-4.448 2.513-0.437 0.1503-1.362 0.249-1.712 0.1826zm-0.0666-6.213c-0.2239-0.1139-0.5047-0.2973-0.6241-0.4076l-0.2171-0.2006v-7.537c0-7.107 7e-3 -7.54 0.1324-7.592 0.1724-0.0708 2.362-0.0708 2.534 0 0.1248 0.0513 0.1324 0.4833 0.1324 7.567 0 6.543-0.0146 7.534-0.113 7.674-0.1474 0.2104-1.034 0.7048-1.261 0.7034-0.0973-4.4e-4 -0.36-0.0941-0.5839-0.208z" fill="url(#grad)"/>
	<path d="m29.56 17.44c0.0282-0.0726 0.7264-1.729 1.552-3.681l1.5-3.549h0.5749c0.5608 0 0.5768 5e-3 0.652 0.1966 0.0424 0.1081 0.7118 1.692 1.488 3.52 0.7758 1.828 1.439 3.396 1.474 3.485 0.0628 0.1601 0.06 0.1608-0.6321 0.1602l-0.6951-6e-4 -0.7693-1.86-3.139 0.0382-0.3691 0.9107-0.3691 0.9106-0.6588 8.1e-4c-0.6114 6.2e-4 -0.6552-9e-3 -0.6076-0.1312zm4.141-4.193c-0.2807-0.688-0.529-1.251-0.552-1.251-0.023 0-0.2226 0.4423-0.4438 0.9828-0.2212 0.5406-0.4535 1.103-0.5161 1.251l-0.1139 0.268h2.136zm13.1 0.6362v-3.688l1.519 0.0297c1.368 0.0268 1.56 0.0457 1.932 0.1918 0.6073 0.2382 0.9809 0.5547 1.23 1.042 0.1925 0.3764 0.2152 0.489 0.2152 1.069 0 0.5658-0.0256 0.7004-0.2006 1.057-0.2462 0.5014-0.716 0.9279-1.254 1.139-0.3145 0.1232-0.597 0.1648-1.279 0.1884l-0.8756 0.0303v2.63h-1.287zm3.001-0.3547c0.5273-0.3088 0.7048-0.8924 0.4479-1.473-0.2006-0.4534-0.4945-0.5805-1.429-0.6179l-0.7326-0.0293v1.111c0 1.291-0.0764 1.192 0.8996 1.164 0.4198-0.0121 0.6427-0.0545 0.8145-0.1551zm5.934 0.3618v-3.681h1.287v6.147h3.288v1.215h-4.575zm7.418 3.549c0.0282-0.0726 0.7264-1.729 1.552-3.681l1.5-3.549h0.5749c0.5608 0 0.5768 5e-3 0.652 0.1966 0.0424 0.1081 0.7118 1.692 1.488 3.52 0.7758 1.828 1.439 3.396 1.474 3.485 0.0628 0.1601 0.06 0.1608-0.6321 0.1602l-0.6952-6e-4 -0.7693-1.86-3.139 0.0382-0.7382 1.821-0.6589 8.1e-4c-0.6114 6.2e-4 -0.6552-9e-3 -0.6076-0.1312zm4.141-4.193c-0.2807-0.688-0.529-1.251-0.552-1.251-0.023 0-0.2226 0.4423-0.4438 0.9828-0.2212 0.5406-0.4535 1.103-0.5161 1.251l-0.1139 0.268h2.136zm7.597 1.251v-3.074h-2.359v-1.215h6.004v1.215h-2.359v6.147h-1.287zm5.774 2.942c0.0282-0.0726 0.7264-1.729 1.551-3.681l1.5-3.549h0.5749c0.5608 0 0.5768 5e-3 0.652 0.1966 0.0424 0.1081 0.7118 1.692 1.488 3.52 0.7758 1.828 1.439 3.396 1.474 3.485 0.0628 0.1601 0.06 0.1608-0.6321 0.1602l-0.6951-6e-4 -0.7693-1.86-3.139 0.0382-0.7382 1.821-0.6589 8.1e-4c-0.6114 6.2e-4 -0.6552-9e-3 -0.6076-0.1312zm4.141-4.193c-0.2807-0.688-0.529-1.251-0.552-1.251s-0.2226 0.4423-0.4439 0.9828c-0.2212 0.5406-0.4535 1.103-0.5161 1.251l-0.1139 0.268h2.136zm-44.8 1.465v-0.5718h2.645v1.144h-2.645z" fill="#fff"/>
</svg>
