<svg width="283.5" height="283.5" version="1.1" viewBox="0 0 283.5 283.5" xmlns="http://www.w3.org/2000/svg">
	<path d="m280.7 267.3c3.689 3.69 3.689 9.672 0 13.36-3.689 3.69-9.671 3.69-13.36 0l-80.82-80.82c-19.77 16.76-45.32 26.89-73.13 26.89h-9.3e-4c-31.19 0-59.54-12.75-80.09-33.3-20.55-20.55-33.3-48.89-33.3-80.09 0-31.19 12.75-59.54 33.3-80.09 20.55-20.55 48.9-33.3 80.09-33.3h9.3e-4c31.19 0 59.54 12.75 80.09 33.3 20.55 20.55 33.3 48.89 33.3 80.09 0 27.81-10.14 53.36-26.89 73.13zm-167.3-248.4h-9.3e-4c-25.97 0-49.59 10.63-66.72 27.76-17.13 17.13-27.76 40.75-27.76 66.72 0 25.97 10.63 49.6 27.76 66.73 17.13 17.13 40.75 27.76 66.72 27.76h9.3e-4c25.97 0 49.59-10.63 66.72-27.76 17.13-17.13 27.76-40.75 27.76-66.73 0-25.97-10.63-49.59-27.76-66.72-17.13-17.13-40.75-27.76-66.72-27.76" fill="#dfe2e8"/>
</svg>
