<svg width="283.4" height="248" version="1.1" viewBox="0 0 283.4 248" xmlns="http://www.w3.org/2000/svg">
	<path d="m142 0.002679c-3.337-0.07971-6.612 1.622-8.393 4.719l-65.84 114c-0.1047 0.1577-0.2065 0.3202-0.3027 0.4863l-65.82 114c-1.021 1.509-1.617 3.328-1.617 5.287 0 5.218 4.231 9.449 9.449 9.449h264.6v-0.0215c1.605 2e-3 3.234-0.4085 4.725-1.271 4.504-2.609 6.041-8.376 3.432-12.88l-66.14-114.6-0.0156 0.01-66.07-114.4c-0.8027-1.436-1.994-2.681-3.523-3.561-1.408-0.8088-2.936-1.214-4.453-1.25zm-0.2344 28.22 57.98 100.4 0.0156 0.0274-0.0156 0.01 57.96 100.4h-231.9l57.96-100.4c0.1005-0.1735 0.1927-0.3503 0.2812-0.5273zm-13.17 56.55v29.94l6.318 64.77h13.8l6.23-64.77v-29.94zm1.068 103.1v24.39h24.39v-24.39z" fill="#ffbf3f"/>
</svg>
