<svg width="277" height="277" version="1.1" viewBox="0 0 277 277" xmlns="http://www.w3.org/2000/svg">
	<defs>
		<linearGradient id="grad" x1="0" y1="0" x2="1" y2="1">
			<stop offset="0%" stop-color="#1abc9c"/>
			<stop offset="100%" stop-color="#529f90"/>
		</linearGradient>
	</defs>
	<path d="m88.36 0c-7.258 1e-8 -14.52 2.761-20.04 8.281l-33.4 33.4h-2e-3l-20.04 20.04-0.03711 0.07422c-0.09467 0.096-33.35 33.35 0.03711 66.74l133.6 133.6 0.0742 0.0352c0.0973 0.0943 33.35 33.35 66.74-0.0352l53.45-53.45c5.52-5.52 8.279-12.79 8.279-20.04 0-7.258-2.759-14.52-8.279-20.04l-40.09-40.09c-5.52-5.519-12.79-8.279-20.04-8.279-7.257 0-14.52 2.761-20.04 8.279l-26.73 26.73c-6.249 6.248-12.54 0.7938-13.38 0.0156l0.0156-0.0156-26.73-26.73c-5.816-5.816-1.499-11.66-0.2461-13.12l0.2461-0.2461 26.73-26.72c5.52-5.52 8.279-12.78 8.279-20.04 0-7.259-2.759-14.52-8.279-20.04l-40.09-40.09c-5.52-5.52-12.79-8.281-20.04-8.281zm0 18.9c2.43 0 4.854 0.9148 6.684 2.744l40.09 40.09c1.829 1.829 2.744 4.252 2.744 6.682s-0.9148 4.852-2.744 6.682l-20.04 20.04-53.45-53.45 20.04-20.04c1.829-1.829 4.252-2.744 6.682-2.744zm-40.09 36.15 54.61 54.61c-3.994 7.629-6.815 19.91 5.525 32.25l26.73 26.72 0.1094 0.0742c0.0501 0.0491 15.23 15.23 32.42 5.729l54.33 54.33-20.04 20.04c-19.49 19.49-38.95 1.139-40.11 0.0176l0.0176-0.0176-133.6-133.6c-19.49-19.49-1.141-38.95-0.01953-40.11l0.01953 0.01758zm160.4 84.11c2.431 0 4.854 0.9148 6.684 2.744l40.09 40.09c1.829 1.829 2.744 4.251 2.744 6.682 0 2.429-0.9148 4.852-2.744 6.682l-20.04 20.04-53.45-53.45 20.05-20.04c1.829-1.829 4.25-2.744 6.68-2.744z" fill="url(#grad)"/>
</svg>
