<svg width="283.5" height="283.5" version="1.1" viewBox="0 0 283.5 283.5" xmlns="http://www.w3.org/2000/svg">
	<defs>
		<linearGradient id="grad" x1="0" y1="0" x2="1" y2="1">
			<stop offset="0%" stop-color="#1abc9c"/>
			<stop offset="100%" stop-color="#529f90"/>
		</linearGradient>
	</defs>
	<path d="m202.3 189 2.768 2.768c3.691 3.689 3.691 9.672 0 13.36-3.689 3.69-9.671 3.69-13.36 0l-2.768-2.768-11.65 11.65c-3.689 3.689-9.672 3.689-13.36 0-3.689-3.69-3.689-9.672 0-13.36l33.32-33.32c1.833-1.834 2.751-4.256 2.751-6.682s-0.9173-4.847-2.751-6.681v-5.3e-4l-11.07-11.07c-1.835-1.835-4.256-2.752-6.683-2.752-2.425 0-4.847 0.9173-6.681 2.752l-29.97 29.97c-5.524 5.526-12.79 8.289-20.04 8.289-7.256 0-14.52-2.763-20.04-8.289l-11.07-11.07-5.34e-4 -5.4e-4c-5.525-5.525-8.287-12.79-8.287-20.04 0-7.257 2.763-14.52 8.287-20.04h5.34e-4l8.304-8.304-2.768-2.768c-3.69-3.689-3.69-9.672 0-13.36 3.689-3.689 9.672-3.689 13.36 0l2.768 2.768 10.48-10.48c3.69-3.689 9.672-3.689 13.36 0 3.689 3.691 3.689 9.672 0 13.36l-32.15 32.15h-4e-4c-1.833 1.833-2.751 4.255-2.751 6.681 0 2.425 0.9177 4.848 2.751 6.681h4e-4l11.07 11.07c1.834 1.834 4.256 2.752 6.682 2.752 2.425 0 4.847-0.9177 6.682-2.752l29.97-29.97c5.525-5.525 12.79-8.288 20.04-8.288 7.257 0 14.52 2.763 20.04 8.288l11.07 11.07c5.524 5.525 8.288 12.79 8.288 20.04 0 7.257-2.764 14.52-8.288 20.04v5.3e-4zm-183.4-170.1v96.87l144.9 144.9 96.87-96.88-144.9-144.9zm-18.9 100.8v-110.2c0-5.219 4.23-9.448 9.448-9.448h110.2v0.001333c2.418 0 4.836 0.9213 6.681 2.767l154.3 154.3c3.689 3.69 3.689 9.672 0 13.36l-110.2 110.2c-3.689 3.69-9.672 3.69-13.36 0l-154.3-154.3c-1.744-1.715-2.826-4.1-2.826-6.74zm66.14-25.2c-7.827 0-14.91-3.173-20.04-8.304-5.129-5.129-8.303-12.22-8.303-20.04 0-7.827 3.173-14.91 8.303-20.04 5.13-5.131 12.22-8.304 20.04-8.304 7.826 0 14.91 3.173 20.04 8.304 5.13 5.129 8.303 12.22 8.303 20.04 0 7.827-3.173 14.91-8.303 20.04-5.13 5.131-12.22 8.304-20.04 8.304zm-6.682-21.67c1.709 1.709 4.072 2.768 6.682 2.768 2.609 0 4.972-1.059 6.682-2.768 1.709-1.709 2.767-4.072 2.767-6.681s-1.058-4.973-2.767-6.681c-1.709-1.709-4.072-2.768-6.682-2.768-2.61 0-4.973 1.059-6.682 2.768-1.709 1.708-2.767 4.072-2.767 6.681s1.058 4.972 2.767 6.681" fill="url(#grad)"/>
</svg>
