<svg width="276.8" height="283.5" version="1.1" viewBox="0 0 276.8 283.5" xmlns="http://www.w3.org/2000/svg">
	<defs>
		<linearGradient id="grad" x1="0" y1="0" x2="1" y2="1">
			<stop offset="0%" stop-color="#1abc9c"/>
			<stop offset="100%" stop-color="#529f90"/>
		</linearGradient>
	</defs>
	<path d="m235 203c-2.711-4.443-1.307-10.24 3.137-12.95 4.443-2.711 10.24-1.306 12.95 3.137 5.548 9.063 10.38 18.23 14.41 27.11 4.228 9.31 7.621 18.44 10.07 26.9 1.268 4.374 1.5 8.758 0.7227 12.99-0.7747 4.231-2.544 8.245-5.279 11.89-2.763 3.676-6.128 6.506-9.957 8.419-3.863 1.929-8.136 2.929-12.68 2.929h-220c-4.544 0-8.819-1-12.68-2.929-3.829-1.912-7.194-4.742-9.957-8.419-2.735-3.64-4.505-7.654-5.28-11.88-0.7755-4.237-0.5437-8.62 0.724-12.99 6.629-22.87 20.55-51.43 39.7-76.09 12.68-16.33 27.74-31.08 44.65-41.58-5.355-5.247-9.934-11.29-13.55-17.93-5.852-10.76-9.177-23.05-9.177-36.05 0-20.87 8.461-39.77 22.14-53.45 13.68-13.68 32.58-22.14 53.45-22.14 20.87 0 39.77 8.461 53.45 22.14 13.68 13.68 22.14 32.58 22.14 53.45 0 13.01-3.325 25.29-9.177 36.05-3.612 6.643-8.191 12.68-13.55 17.93 4.888 3.037 9.623 6.431 14.19 10.12 9.125 7.364 17.57 15.87 25.24 25.01 3.343 3.995 2.815 9.945-1.181 13.29-3.995 3.343-9.944 2.815-13.29-1.181-6.94-8.273-14.5-15.91-22.58-22.43-7.341-5.923-15.12-10.94-23.25-14.7l5e-3 -9e-3c-1.563-0.72-2.948-1.875-3.955-3.423-2.833-4.363-1.593-10.2 2.768-13.03 7.948-5.156 14.53-12.24 19.06-20.58 4.344-7.991 6.813-17.2 6.813-27.05 0-15.65-6.345-29.83-16.6-40.09-10.26-10.26-24.43-16.6-40.09-16.6-15.66 0-29.83 6.345-40.09 16.6-10.26 10.26-16.6 24.43-16.6 40.09 0 9.844 2.47 19.05 6.814 27.05 4.469 8.216 10.91 15.21 18.7 20.35 1.609 0.9413 2.956 2.367 3.795 4.187 2.181 4.729 0.1151 10.33-4.614 12.51-19.19 8.861-36.41 24.79-50.6 43.06-17.7 22.8-30.5 48.95-36.52 69.74-0.4407 1.521-0.5312 2.991-0.2807 4.358 0.2509 1.373 0.8583 2.719 1.81 3.986 0.9244 1.231 2.045 2.175 3.313 2.808 1.234 0.6167 2.672 0.9364 4.266 0.9364h220c1.595 0 3.032-0.3197 4.265-0.9364 1.268-0.6333 2.389-1.578 3.313-2.809 0.952-1.267 1.559-2.613 1.811-3.986 0.2507-1.367 0.16-2.837-0.2813-4.357-2.161-7.459-5.255-15.73-9.188-24.39-3.74-8.234-8.203-16.71-13.31-25.04" fill="url(#grad)"/>
</svg>
