<svg width="283.5" height="283.5" version="1.1" viewBox="0 0 283.5 283.5" xmlns="http://www.w3.org/2000/svg">
	<path d="m141.7 0c-39.14 0-74.57 15.87-100.2 41.51-25.65 25.65-41.51 61.08-41.51 100.2 0 39.14 15.86 74.57 41.51 100.2 25.65 25.65 61.08 41.51 100.2 41.51 39.14 0 74.57-15.87 100.2-41.51 25.65-25.65 41.51-61.08 41.51-100.2 0-39.14-15.86-74.57-41.51-100.2-25.65-25.65-61.08-41.51-100.2-41.51zm0 18.9c33.92 0 64.63 13.75 86.86 35.98 22.23 22.23 35.98 52.94 35.98 86.86 0 33.92-13.75 64.63-35.98 86.86-22.23 22.23-52.94 35.98-86.86 35.98-33.92 0-64.63-13.75-86.86-35.98-22.23-22.23-35.98-52.94-35.98-86.86 0-33.92 13.75-64.63 35.98-86.86 22.23-22.23 52.94-35.98 86.86-35.98zm-13.17 59.1v29.94l6.318 64.77h13.8l6.23-64.77v-29.94zm1.068 103.1v24.39h24.39v-24.39z" fill="#ff4444"/>
</svg>
